<svg xmlns="http://www.w3.org/2000/svg" width="512" height="149" preserveAspectRatio="xMidYMid"><path fill="#222" d="M3.33225 115.62903V58.64758h71.1435v-3.33225H3.33226V3.33225h75.64204V0H0v118.96128h79.64074v-3.33225H3.33224zm140.45428-82.30654l-29.4904 38.8207-28.82395-38.8207h-4.33193l31.15653 41.31988-34.15555 44.3189h3.9987l32.1562-41.81971 32.3228 41.81972h4.16532l-34.32216-44.31891 31.32314-41.31988h-3.9987zM160.781 148.28506V94.9691h.33322c1.99936 7.77528 5.94248 14.02319 11.82948 18.7439 5.887 4.7207 13.38449 7.08102 22.49268 7.08102 5.887 0 11.10747-1.19404 15.66157-3.58217 4.5541-2.38812 8.35837-5.63703 11.41295-9.74682 3.05458-4.1098 5.38713-8.88597 6.99772-14.32867 1.6106-5.4427 2.41588-11.163 2.41588-17.16108 0-6.44238-.83305-12.38483-2.49918-17.82753-1.66614-5.4427-4.082-10.16334-7.24764-14.16206-3.16566-3.99872-6.9977-7.10878-11.49626-9.3303-4.49856-2.2215-9.58019-3.33224-15.24504-3.33224-4.33194 0-8.35837.63867-12.0794 1.91604-3.72103 1.27737-7.02548 3.08232-9.91344 5.4149-2.88796 2.33259-5.38712 5.08167-7.49756 8.24732-2.11043 3.16565-3.721 6.6367-4.83176 10.41328h-.33322v-23.9922h-3.33225v114.96258h3.33225zm34.65538-30.65668c-10.4411 0-18.82717-3.58214-25.15848-10.7465-6.3313-7.16438-9.4969-17.46647-9.4969-30.90661 0-5.55378.77751-10.82978 2.33257-15.82818s3.8043-9.38582 6.7478-13.16238c2.9435-3.77657 6.58117-6.77557 10.91312-8.99708 4.33194-2.2215 9.2192-3.33224 14.6619-3.33224 5.55377 0 10.41325 1.11073 14.57858 3.33224 4.16533 2.22151 7.60862 5.24828 10.32997 9.08038 2.72135 3.8321 4.77622 8.21952 6.16466 13.16238 1.38844 4.94286 2.08266 10.1911 2.08266 15.74488 0 4.9984-.63868 9.96895-1.91605 14.91181s-3.24893 9.38582-5.91474 13.329-6.08133 7.16432-10.24666 9.66352c-4.16534 2.4992-9.19143 3.74878-15.07843 3.74878zm54.8155 1.3329V70.47706c0-4.66517.66643-9.2192 1.99934-13.66222 1.3329-4.44302 3.38777-8.35837 6.16466-11.74618 2.77689-3.3878 6.30348-6.05357 10.57989-7.9974 4.2764-1.94382 9.35804-2.7491 15.24504-2.41587v-3.33225c-5.10948-.11108-9.5802.4443-13.4123 1.66612-3.8321 1.22183-7.13656 2.88794-9.91344 4.99837-2.7769 2.11044-4.99837 4.58183-6.6645 7.41426-1.66613 2.83242-2.88795 5.85919-3.66547 9.08037h-.33323V33.3225h-3.33225v85.63879h3.33225zm38.15424-42.15295h71.64334c.22215-5.887-.36098-11.55177-1.74943-16.99447-1.38844-5.4427-3.60992-10.2744-6.6645-14.49528-3.05457-4.22087-6.9977-7.60862-11.82948-10.16336-4.83178-2.55473-10.57985-3.83208-17.24438-3.83208-4.77625 0-9.44135.99966-13.99545 2.99902-4.5541 1.99936-8.55275 4.91505-11.9961 8.74715-3.44333 3.8321-6.22018 8.52498-8.33061 14.07875-2.11044 5.55378-3.16564 11.88499-3.16564 18.99382 0 6.3313.72198 12.24599 2.16596 17.74422 1.44398 5.49824 3.66546 10.27442 6.6645 14.32867 2.99904 4.05426 6.85885 7.1921 11.57956 9.4136 4.72071 2.22152 10.41325 3.27672 17.07778 3.16564 9.77464 0 17.9941-2.74908 24.65864-8.24731 6.66453-5.49824 10.60765-13.24564 11.82948-23.24244h-3.33225c-1.44398 9.44142-5.13719 16.52238-11.07973 21.24309-5.94254 4.7207-13.41225 7.08103-22.40937 7.08103-6.10915 0-11.27409-1.0552-15.49495-3.16564-4.22087-2.11043-7.66416-4.99836-10.32998-8.66385-2.6658-3.66549-4.63737-7.9696-5.91474-12.91246-1.27737-4.94286-1.97158-10.30217-2.08265-16.0781zm68.3111-3.33225h-68.3111c.33322-5.99808 1.44396-11.38516 3.33225-16.1614 1.88828-4.77625 4.35967-8.85821 7.41425-12.24602 3.05458-3.3878 6.60894-5.97027 10.6632-7.74748 4.05425-1.7772 8.4139-2.6658 13.07907-2.6658 5.55378 0 10.44103 1.02744 14.6619 3.08234 4.22086 2.0549 7.74746 4.8595 10.57988 8.41392 2.83243 3.55442 4.9706 7.69192 6.41458 12.41263 1.44398 4.7207 2.16596 9.69126 2.16596 14.91181zm72.4764-14.8285h3.33225c0-9.5525-2.77685-16.49461-8.33062-20.82656-5.55378-4.33194-13.1068-6.49788-22.6593-6.49788-5.33162 0-9.8301.66644-13.4956 1.99935-3.66549 1.3329-6.66448 3.05455-8.99707 5.16498-2.33259 2.11044-3.9987 4.44299-4.99837 6.99772-.99968 2.55474-1.49951 4.99836-1.49951 7.33095 0 4.66517.83305 8.38615 2.49918 11.16303 1.66613 2.7769 4.27637 4.94283 7.83079 6.49789 2.44366 1.11075 5.2205 2.11042 8.33062 2.99902 3.11011.8886 6.72001 1.83273 10.8298 2.83241 3.6655.8886 7.2754 1.7772 10.82981 2.6658 3.55442.8886 6.69226 2.08265 9.4136 3.58217 2.72136 1.49952 4.94283 3.41554 6.6645 5.74813 1.72167 2.33258 2.5825 5.38711 2.5825 9.16368 0 3.6655-.86083 6.77556-2.5825 9.3303s-3.91538 4.63737-6.58119 6.24796c-2.66581 1.6106-5.63704 2.77687-8.91376 3.49886-3.27673.722-6.4701 1.08299-9.58022 1.08299-10.10787 0-17.85527-2.24925-23.24243-6.7478-5.38716-4.49856-8.0807-11.57952-8.0807-21.2431h-3.33225c0 10.77433 2.91569 18.66058 8.74715 23.65897 5.83146 4.9984 14.46745 7.49756 25.90823 7.49756 3.6655 0 7.3587-.41653 11.07973-1.2496 3.72103-.83306 7.05324-2.19371 9.99674-4.082 2.9435-1.88828 5.3316-4.3319 7.16434-7.33094 1.83275-2.99904 2.7491-6.66448 2.7491-10.99642 0-4.1098-.80528-7.44201-2.41588-9.99675-1.61059-2.55474-3.721-4.66514-6.33127-6.33127-2.61027-1.66613-5.55373-2.97125-8.83046-3.9154-3.27672-.94414-6.58117-1.8605-9.91344-2.7491-4.66517-1.22183-8.74713-2.27703-12.24601-3.16563-3.49888-.8886-6.74779-1.94381-9.74683-3.16564-2.88796-1.22183-5.19274-2.97124-6.91441-5.2483-1.72167-2.27704-2.5825-5.52595-2.5825-9.74682 0-.77753.22215-2.16595.66645-4.16531.4443-1.99936 1.4995-4.02646 3.16564-6.08135 1.66613-2.0549 4.22083-3.88762 7.66417-5.49821 3.44334-1.6106 8.16398-2.41588 14.16206-2.41588 4.1098 0 7.85853.4443 11.24634 1.3329 3.3878.8886 6.30349 2.3048 8.74715 4.24861 2.44366 1.94382 4.33192 4.41522 5.66482 7.41426 1.3329 2.99903 1.99935 6.66447 1.99935 10.99642zm77.14156 0h3.33225c0-9.5525-2.77685-16.49461-8.33063-20.82656-5.55377-4.33194-13.1068-6.49788-22.65929-6.49788-5.33162 0-9.83011.66644-13.4956 1.99935-3.6655 1.3329-6.66449 3.05455-8.99707 5.16498-2.33259 2.11044-3.9987 4.44299-4.99838 6.99772-.99968 2.55474-1.49951 4.99836-1.49951 7.33095 0 4.66517.83305 8.38615 2.49919 11.16303 1.66613 2.7769 4.27637 4.94283 7.83078 6.49789 2.44366 1.11075 5.2205 2.11042 8.33062 2.99902 3.11012.8886 6.72002 1.83273 10.82981 2.83241 3.6655.8886 7.2754 1.7772 10.82981 2.6658 3.55442.8886 6.69225 2.08265 9.4136 3.58217 2.72135 1.49952 4.94283 3.41554 6.6645 5.74813 1.72167 2.33258 2.5825 5.38711 2.5825 9.16368 0 3.6655-.86083 6.77556-2.5825 9.3303s-3.91538 4.63737-6.5812 6.24796c-2.6658 1.6106-5.63703 2.77687-8.91376 3.49886-3.27672.722-6.4701 1.08299-9.58021 1.08299-10.10787 0-17.85527-2.24925-23.24244-6.7478-5.38716-4.49856-8.0807-11.57952-8.0807-21.2431h-3.33225c0 10.77433 2.91569 18.66058 8.74715 23.65897 5.83147 4.9984 14.46746 7.49756 25.90824 7.49756 3.66549 0 7.3587-.41653 11.07972-1.2496 3.72103-.83306 7.05325-2.19371 9.99675-4.082 2.9435-1.88828 5.33159-4.3319 7.16433-7.33094C511.08364 105.13243 512 101.46699 512 97.13505c0-4.1098-.80529-7.44201-2.41588-9.99675-1.6106-2.55474-3.721-4.66514-6.33127-6.33127-2.61028-1.66613-5.55373-2.97125-8.83046-3.9154-3.27673-.94414-6.58118-1.8605-9.91344-2.7491-4.66517-1.22183-8.74714-2.27703-12.24601-3.16563-3.49888-.8886-6.7478-1.94381-9.74683-3.16564-2.88797-1.22183-5.19275-2.97124-6.91442-5.2483-1.72167-2.27704-2.58249-5.52595-2.58249-9.74682 0-.77753.22215-2.16595.66645-4.16531.4443-1.99936 1.4995-4.02646 3.16564-6.08135 1.66613-2.0549 4.22083-3.88762 7.66417-5.49821 3.44334-1.6106 8.16398-2.41588 14.16205-2.41588 4.1098 0 7.85854.4443 11.24634 1.3329 3.3878.8886 6.3035 2.3048 8.74716 4.24861 2.44366 1.94382 4.33191 4.41522 5.66482 7.41426 1.3329 2.99903 1.99935 6.66447 1.99935 10.99642z"/></svg>