<svg xmlns="http://www.w3.org/2000/svg" width="256" height="289" preserveAspectRatio="xMidYMid"><path fill="#539E43" d="M128 288.46377c-3.97516 0-7.6853-1.06004-11.13044-2.91511L81.6232 264.61284c-5.30021-2.91512-2.6501-3.97516-1.06004-4.50518 7.15528-2.38509 8.48033-2.91511 15.90062-7.15528.79503-.53002 1.85507-.265 2.6501.26501l27.03106 16.16563c1.06004.53003 2.3851.53003 3.18012 0l105.73913-61.21739c1.06005-.53002 1.59007-1.59006 1.59007-2.91511V83.08075c0-1.32506-.53002-2.3851-1.59007-2.91512L129.32505 19.21325c-1.06004-.53002-2.3851-.53002-3.18012 0L20.4058 80.16563c-1.06004.53002-1.59007 1.85507-1.59007 2.91512v122.16977c0 1.06004.53003 2.3851 1.59007 2.91511l28.88612 16.69566c15.63562 7.9503 25.441-1.32506 25.441-10.60042V93.68116c0-1.59006 1.32505-3.18012 3.18012-3.18012h13.51553c1.59006 0 3.18012 1.32505 3.18012 3.18012v120.57971c0 20.93582-11.39544 33.1263-31.27122 33.1263-6.09523 0-10.86542 0-24.38095-6.62526l-27.82609-15.90062C4.24017 220.88613 0 213.46584 0 205.51553V83.34576C0 75.39545 4.24017 67.97516 11.13043 64L116.86956 2.7826c6.62526-3.71014 15.63562-3.71014 22.26088 0L244.86957 64C251.75983 67.97516 256 75.39545 256 83.34576v122.16977c0 7.95031-4.24017 15.3706-11.13044 19.34576l-105.73912 61.21739c-3.44514 1.59006-7.4203 2.3851-11.13044 2.3851zm32.59627-84.00828c-46.3768 0-55.91718-21.20083-55.91718-39.22153 0-1.59007 1.32505-3.18013 3.18012-3.18013h13.78054c1.59006 0 2.91511 1.06004 2.91511 2.6501 2.12009 14.04555 8.21533 20.93582 36.30642 20.93582 22.26087 0 31.80125-5.0352 31.80125-16.96066 0-6.89027-2.6501-11.92547-37.36647-15.3706-28.88612-2.91512-46.90683-9.27536-46.90683-32.33126 0-21.46584 18.0207-34.18634 48.23189-34.18634 33.92132 0 50.61697 11.66046 52.73706 37.10145 0 .79503-.26501 1.59006-.79503 2.3851-.53002.53001-1.32506 1.06003-2.12009 1.06003h-13.78053c-1.32505 0-2.6501-1.06004-2.91512-2.38509-3.18012-14.57557-11.39544-19.34576-33.1263-19.34576-24.38094 0-27.29606 8.48034-27.29606 14.84058 0 7.6853 3.44514 10.0704 36.30642 14.31057 32.59627 4.24016 47.96687 10.3354 47.96687 33.12629-.265 23.32091-19.34575 36.57143-53.00207 36.57143z"/></svg>