<svg xmlns="http://www.w3.org/2000/svg" width="256" height="292" preserveAspectRatio="xMidYMid"><path fill="#76D04B" d="M120.94663 289.1902c4.25839 2.46162 9.51116 2.46162 13.76955 0L248.7976 223.36c4.26603-2.4597 6.89194-7.00752 6.89194-11.93457V79.66376c0-4.92322-2.62686-9.46818-6.88525-11.93361L134.72478 1.84645c-4.26699-2.46161-9.51977-2.46161-13.7858 0L6.88909 67.73015C2.62686 70.19463 0 74.74149 0 79.66376v131.76932c0 4.9194 2.62687 9.46626 6.89194 11.92597l114.05373 65.8302"/><path fill="#4F4D3F" d="M201.70125 114.11105l-5.08752-2.92777c7.82328-11.5391 12.49815-28.88788 6.63594-54.82507 0 0-13.2012 36.99869-39.73922 35.77313l-31.07343-17.88179c-1.17207-.6954-2.4855-1.05361-3.81326-1.10806h-.71642c-1.3249.0554-2.63641.41361-3.82471 1.10806l-31.0763 17.8818C66.47116 93.36071 53.26519 56.3582 53.26519 56.3582c-5.86507 25.93624-1.18256 43.28501 6.63881 54.82507l-5.08657 2.92872c-2.58388 1.4892-4.19056 4.25457-4.19056 7.27116L50.7797 228.715c0 1.49779.77564 2.88477 2.09003 3.6136 1.28382.77565 2.87331.77565 4.15523 0l41.16441-23.5711c2.6049-1.54746 4.18866-4.27653 4.18866-7.2597v-50.14257c0-2.98985 1.58376-5.7619 4.1772-7.24346l17.52835-10.09385c1.3058-.76036 2.7348-1.13003 4.19344-1.13003 1.42614 0 2.89241.36967 4.1619 1.12908l17.52263 10.09385c2.59439 1.4806 4.18388 4.2536 4.18388 7.2425v50.14257c0 2.98317 1.60478 5.73325 4.19344 7.2597l41.1539 23.5711c1.29147.77374 2.90389.77374 4.18389 0 1.27522-.72883 2.0776-2.11677 2.0776-3.61456l.13374-107.33182c-.00287-3.0185-1.58567-5.78388-4.1858-7.27117l-.00095.00192z"/></svg>