<svg xmlns="http://www.w3.org/2000/svg" width="256" height="296" preserveAspectRatio="xMidYMid"><defs><linearGradient id="a" x1="50%" x2="50%" y1="45.2268%" y2="100%"><stop offset="0%" stop-color="#F7F6F3"/><stop offset="100%" stop-color="#FEF6D5"/></linearGradient></defs><path fill="#A1070C" d="M11.071 215.711l116.926 67.509 116.932-67.509V80.696L127.997 13.189 11.071 80.696v135.015zM127.997 296L0 222.1V74.306L127.997.404 256 74.306V222.1L127.997 296z"/><path fill="url(#a)" d="M9.579 79.833L128 11.463l118.421 68.37v136.741L128 284.944 9.579 216.574V79.833"/><path fill="#A1070C" d="M182.33228 98.17333c0 5.3714-1.06013 10.7074-3.18043 16.00814-2.1203 5.30074-4.96498 10.21268-8.53414 14.73597-3.56916 4.5233-7.686 8.48112-12.35065 11.8736-4.66465 3.39247-9.50592 5.83077-14.52395 7.31497l-2.2263-3.7105c2.96841-1.4842 5.68942-3.39244 8.1631-5.72476 2.47367-2.33232 4.59393-4.96498 6.36085-7.89806 1.7669-2.93307 3.12741-6.0428 4.08154-9.32925.95414-3.28645 1.4312-6.62587 1.4312-10.01834 0-3.8872-.5654-7.56233-1.69623-11.02548-1.13083-3.46314-2.7917-6.48452-4.98267-9.06421-2.19097-2.5797-4.8943-4.61161-8.11009-6.09582-3.21578-1.4842-6.90857-2.2263-11.07848-2.2263-5.0887 0-9.75329.98946-13.99387 2.9684-4.2406 1.97894-8.05707 4.64694-11.44954 8.00407-3.39247 3.35714-6.34317 7.20895-8.85219 11.55555-2.50901 4.3466-4.59394 8.90517-6.25483 13.67583-1.6609 4.77067-2.91539 9.59427-3.7635 14.47094-.84812 4.87668-1.27218 9.47058-1.27218 13.78185 0 4.38194.4594 8.90517 1.37819 13.56982.9188 4.66465 2.26162 9.25855 4.02854 13.78184 1.7669 4.5233 3.95785 8.79916 6.57288 12.82772 2.61503 4.02856 5.6364 7.56233 9.06421 10.60142 3.42781 3.0391 7.24429 5.45972 11.44954 7.26198 4.20525 1.80224 8.78148 2.70336 13.72884 2.70336 3.39247 0 6.69654-.4594 9.91232-1.37819 3.21578-.9188 6.30783-2.15561 9.27624-3.7105 2.96842-1.55488 5.77777-3.39244 8.42813-5.51273 2.65037-2.1203 5.10634-4.41725 7.368-6.89093l3.49846 3.39246c-3.10977 4.09923-6.80256 8.03939-11.07848 11.82058-4.27593 3.7812-8.8875 7.13828-13.83486 10.07135-4.94735 2.93308-10.12433 5.26536-15.53108 6.99694-5.40675 1.73157-10.76041 2.59735-16.06115 2.59735-5.15938 0-10.01832-.90112-14.57695-2.70337-4.55864-1.80225-8.74615-4.24055-12.56269-7.31498-3.81653-3.07442-7.22661-6.67887-10.23037-10.81345-3.00375-4.13457-5.54806-8.53412-7.63302-13.19876-2.08495-4.66465-3.67515-9.47058-4.77064-14.41793-1.09548-4.94736-1.64322-9.78862-1.64322-14.52395 0-6.85562 1.14848-13.9055 3.44546-21.14983 2.29699-7.24434 5.45972-14.27655 9.48828-21.09683 4.02855-6.82028 8.78148-13.26941 14.2589-19.3476 5.47743-6.07817 11.37883-11.37883 17.70438-15.90212 6.32554-4.5233 12.9337-8.11007 19.82465-10.76044 6.89096-2.65037 13.76415-3.97554 20.61977-3.97554 4.24058 0 8.1984.61841 11.87359 1.85525 3.67517 1.23684 6.85557 3.0214 9.54127 5.35372 2.68571 2.33232 4.80597 5.23002 6.36086 8.69316 1.55488 3.46315 2.3323 7.42098 2.3323 11.8736z"/></svg>