<svg xmlns="http://www.w3.org/2000/svg" width="256" height="225" preserveAspectRatio="xMidYMid"><path fill="#8080F2" d="M77.9646 80.56835l48.5703-28.04185c1.21547-.702 2.71373-.702 3.9292 0l48.5713 28.04185c1.21446.702 1.9646 1.9987 1.9646 3.4027v56.0837c0 1.403-.75014 2.70069-1.9646 3.40369l-48.5713 28.04185c-1.21547.702-2.71373.702-3.9292 0l-48.5703-28.04185c-1.21547-.702-1.9646-1.9997-1.9646-3.4037v-56.0837c.001-1.404.75014-2.70069 1.9646-3.40269"/><path fill="#4B32C3" d="M254.4167 107.4166L196.32314 6.3498C194.21291 2.69553 190.31471 0 186.09525 0H69.90613c-4.22046 0-8.11967 2.69553-10.2299 6.3498L1.58267 107.19372c-2.11023 3.65528-2.11023 8.2683 0 11.92358l58.09356 100.23856c2.11023 3.65427 6.00944 5.52257 10.2299 5.52257h116.18812c4.21946 0 8.11866-1.81208 10.22789-5.46735l58.09356-100.4022c2.11223-3.65327 2.11223-7.938.001-11.59228zm-48.1046 48.59984c0 1.4858-.8945 2.86017-2.18251 3.60408l-73.9986 42.69377c-1.28701.7429-2.8993.7429-4.18632 0l-74.0558-42.69377c-1.28703-.7439-2.18754-2.11727-2.18754-3.60408V70.62789c0-1.4868.88746-2.86017 2.17548-3.60408l73.99558-42.69377c1.28702-.7439 2.8973-.7439 4.18432 0l74.06083 42.69377c1.28802.7439 2.19456 2.11727 2.19456 3.60408v85.38855z"/></svg>