<svg xmlns="http://www.w3.org/2000/svg" width="256" height="264" preserveAspectRatio="xMidYMid"><path d="M255.00793 158.08562c-1.53482-4.6482-5.55574-7.88634-10.75614-8.6638-2.4518-.36597-5.26012-.20988-8.5828.47534-5.79163 1.19487-10.08865 1.64952-13.2245 1.7382 11.8363-19.98514 21.46143-42.77565 27.00238-64.2288 8.95941-34.6883 4.17168-50.49112-1.42307-57.63961C233.21718 10.84778 211.61445.68345 185.55152.37188c-13.90204-.16968-26.10786 2.57537-32.47416 4.54888-5.9282-1.04529-12.30278-1.62942-18.9913-1.73761-12.53572-.19983-23.6129 2.5328-33.0778 8.14943-5.2412-1.7713-13.65018-4.26923-23.36222-5.86376-22.84253-3.75013-41.25206-.82771-54.71778 8.68508C6.6223 25.67213-.9371 45.68388.46116 73.634c.44341 8.87427 5.40792 35.8737 13.2239 61.4802 4.49212 14.71734 9.28222 26.93971 14.23727 36.32953 7.0267 13.31496 14.5453 21.15636 22.9862 23.97177 4.73156 1.5768 13.32737 2.68002 22.36896-4.84863 1.14579 1.38702 2.6741 2.76634 4.70378 4.04693 2.57655 1.62528 5.72777 2.95317 8.87427 3.74008 11.34145 2.83551 21.96456 2.12605 31.02743-1.84757.05558 1.61168.09874 3.15181.1354 4.48148.0603 2.15737.11942 4.27218.19865 6.24983.53683 13.37467 1.44672 23.7737 4.1427 31.0493.1478.40086.34705 1.01041.55753 1.65662 1.34444 4.11846 3.59405 11.01214 9.31532 16.41179 5.92584 5.59238 13.09266 7.30812 19.65643 7.30752 3.29193 0 6.4331-.43159 9.18762-1.02222 9.82082-2.10417 20.97367-5.31097 29.04151-16.79845 7.62739-10.8602 11.33554-27.217 12.00658-52.99082.08691-.72839.16732-1.42426.24477-2.0876.05203-.44757.10524-.90517.15904-1.3616l1.79732.15786.46293.03133c10.00233.45584 22.23238-1.66548 29.7433-5.15429 5.9353-2.75451 24.95379-12.79468 20.47586-26.35144"/><path fill="#336791" d="M237.90559 160.72248c-29.73975 6.13454-31.7842-3.9346-31.7842-3.9346 31.4005-46.59318 44.52685-105.73628 33.199-120.21121-30.90328-39.4849-84.39841-20.81109-85.29116-20.32629l-.28734.05144c-5.87558-1.2197-12.45117-1.94631-19.84147-2.06692-13.45685-.22053-23.66434 3.52783-31.40996 9.40165 0 0-95.43006-39.31345-90.99174 49.44406.94418 18.88251 27.06387 142.87342 58.21842 105.42234C81.1041 164.80843 92.1062 153.2293 92.1062 153.2293c5.46468 3.63012 12.00658 5.48183 18.86477 4.8167l.5327-.45228c-.16554 1.70036-.08987 3.36347.21343 5.33225-8.02587 8.9671-5.66747 10.54152-21.71152 13.8441-16.23442 3.34574-6.69739 9.30232-.47061 10.85901 7.54874 1.88778 25.01291 4.56189 36.81315-11.95691l-.47061 1.88482c3.14472 2.51861 5.35294 16.3834 4.98283 28.95165-.3701 12.56883-.61724 21.19774 1.86058 27.9377 2.47782 6.73995 4.94737 21.90485 26.0387 17.38553 17.62379-3.77674 26.75643-13.56386 28.02697-29.88933.90161-11.60632 2.94193-9.89059 3.07081-20.26716l1.63651-4.91248c1.88719-15.73306.29975-20.80872 11.15758-18.44796l2.63863.23176c7.99158.3636 18.45092-1.28532 24.5896-4.13857 13.21859-6.13454 21.05822-16.3769 8.02469-13.68565h.00118"/><path fill="#FFF" d="M108.07634 81.52506c-2.67942-.37306-5.107-.02779-6.33496.90162-.69114.52323-.90458 1.12924-.96193 1.54664-.1543 1.105.6202 2.32647 1.09554 2.95671 1.34563 1.78373 3.31204 3.00992 5.25835 3.28011a6.12852 6.12852 0 00.84131.05794c3.24582 0 6.19603-2.52689 6.45617-4.3922.32517-2.33593-3.06609-3.89321-6.35448-4.35082M196.86045 81.59897h-.00059c-.2554-1.83103-3.51423-2.35308-6.60634-1.92326-3.08737.43041-6.08192 1.82393-5.83183 3.65909.20102 1.42721 2.77698 3.86365 5.8277 3.86306.25718 0 .51732-.01715.77923-.0538 2.03617-.28202 3.5302-1.57503 4.23967-2.32056 1.08134-1.13515 1.70627-2.40155 1.59216-3.22453"/><path fill="#FFF" d="M247.80209 160.02542c-1.13397-3.4291-4.7836-4.53291-10.84778-3.2801-18.00514 3.71583-24.45303 1.14165-26.57079-.41741 13.99545-21.32072 25.50836-47.09159 31.71917-71.13726 2.94252-11.38993 4.5678-21.96752 4.70023-30.58875.14662-9.46431-1.46446-16.4177-4.78892-20.66564-13.40245-17.1254-33.07189-26.31124-56.88225-26.5637-16.36863-.18387-30.19854 4.00555-32.87974 5.18326-5.64619-1.40415-11.80142-2.26616-18.50177-2.37612-12.28859-.19866-22.90993 2.74327-31.70438 8.73947-3.8199-1.4213-13.69216-4.8102-25.76436-6.75474-20.87258-3.3611-37.45818-.8147-49.29449 7.57063C12.86385 29.74093 6.34383 47.62664 7.60728 72.89437c.42509 8.5018 5.2684 34.65342 12.91292 59.69885 10.06204 32.9637 20.9991 51.62509 32.50786 55.46332 1.34681.44933 2.90055.76386 4.61273.76386 4.19829 0 9.3449-1.89251 14.7002-8.33035 8.89496-10.70115 17.19989-19.66825 20.26125-22.92648 4.52404 2.42874 9.49328 3.78442 14.57722 3.9204.00886.13303.02246.26605.03429.39849-1.01987 1.20964-1.85645 2.2697-2.56946 3.17487-3.52192 4.47084-4.25504 5.40142-15.59235 7.73617-3.22454.66512-11.79079 2.43052-11.91553 8.4344-.13658 6.55963 10.12412 9.31473 11.29356 9.6068 4.07412 1.01986 7.99867 1.523 11.7417 1.523 9.10367-.0006 17.11417-2.9922 23.51653-8.78087-.19747 23.38587.77805 46.43 3.58578 53.45138 2.29927 5.7473 7.91767 19.79477 25.66444 19.7936 2.60316 0 5.47-.30272 8.623-.97848 18.52069-3.97126 26.5631-12.15675 29.67472-30.20328 1.66488-9.64463 4.52227-32.67636 5.86553-45.02998 2.8361.88447 6.4875 1.28946 10.43451 1.28887 8.2322 0 17.73081-1.74884 23.68799-4.514 6.69147-3.10747 18.76781-10.73426 16.57792-17.35952zm-44.1059-83.48083c-.0615 3.64726-.56344 6.95812-1.09554 10.41441-.5723 3.71703-1.16472 7.55998-1.3137 12.22533-.14722 4.54001.41977 9.26034.96842 13.8246 1.10796 9.21954 2.24488 18.71164-2.15678 28.07781-.68405-1.21496-1.34445-2.54049-1.94986-4.0085-.54688-1.32611-1.73465-3.4563-3.37885-6.40472-6.3994-11.47566-21.38457-38.34916-13.71344-49.31518 2.2845-3.26474 8.08322-6.61994 22.63975-4.81375zm-17.6439-61.78646c21.33372.47121 38.20903 8.45214 50.15767 23.71991 9.16397 11.71097-.92704 64.99799-30.14001 110.96861a171.3293 171.3293 0 00-.88625-1.11623c-.1212-.15194-.24476-.30625-.36951-.46234 7.54875-12.46714 6.07246-24.80184 4.75876-35.7383-.53979-4.48799-1.04942-8.72706-.91994-12.70837.1342-4.22134.69232-7.84022 1.23152-11.34026.66394-4.31357 1.33853-8.77613 1.1523-14.03744.13893-.5516.1951-1.20373.12238-1.97764-.47535-5.0455-6.23505-20.1436-17.97558-33.81092-6.42128-7.47425-15.78686-15.83948-28.57386-21.48153 5.50016-1.13988 13.02171-2.2029 21.44252-2.01549zM66.6741 175.778c-5.89983 7.0935-9.97454 5.73428-11.31426 5.2879-8.7306-2.91237-18.86004-21.36388-27.79107-50.62414-7.7279-25.318-12.24425-50.77669-12.60135-57.91572-1.12865-22.57766 4.34431-38.31309 16.26753-46.76877 19.40397-13.76074 51.30642-5.5244 64.12534-1.34681-.18447.1815-.37602.35178-.55871.53624-21.03516 21.24445-20.53617 57.54088-20.48473 59.75915-.00177.85609.06976 2.0681.1685 3.73535.36183 6.10439 1.03523 17.46653-.76386 30.33393-1.67258 11.95692 2.01311 23.6602 10.11052 32.10879.83835.87442 1.71337 1.69563 2.61735 2.46836-3.6047 3.8601-11.43782 12.3956-19.77526 22.42571zm22.47892-29.99339c-6.52652-6.80913-9.49032-16.28113-8.13287-25.98903 1.9002-13.59283 1.1984-25.4309.8218-31.7907-.05262-.8898-.09933-1.66962-.12711-2.28508 3.07318-2.72436 17.314-10.3553 27.46945-8.02823 4.6352 1.06183 7.45829 4.2172 8.63246 9.64582 6.0766 28.10265.80465 39.81598-3.43147 49.22826-.87323 1.93922-1.698 3.77201-2.40273 5.66866l-.5457 1.46564c-1.38228 3.70639-2.6682 7.15204-3.46516 10.42447-6.93743-.02129-13.68684-2.9845-18.81867-8.33981zm1.0648 37.90042c-2.02553-.5061-3.84769-1.38524-4.91662-2.11422.89275-.42036 2.48196-.99148 5.23765-1.55906 13.33743-2.74624 15.39666-4.68368 19.8947-10.3949 1.03168-1.30897 2.20053-2.79353 3.8193-4.6015.00059-.00118.00118-.00177.00177-.00236 2.4116-2.69953 3.51424-2.24192 5.51435-1.41244 1.62113.67104 3.1997 2.70249 3.84 4.9385.3027 1.05593.64325 3.06077-.47002 4.61982-9.39633 13.15592-23.0879 12.98683-32.92113 10.52615zm69.79872 64.95246c-16.316 3.4959-22.09285-4.82912-25.89975-14.34605-2.45712-6.1446-3.6644-33.85113-2.80772-64.44756.01123-.40735-.0467-.80052-.15904-1.17003-.09755-.71361-.24772-1.4355-.45583-2.1621-1.27468-4.45193-4.3792-8.17605-8.10391-9.71973-1.47983-.6131-4.1965-1.7382-7.46066-.9034.69647-2.86802 1.90375-6.10615 3.21212-9.6133l.54925-1.47569c.61842-1.66311 1.39352-3.38594 2.21413-5.20927 4.433-9.84861 10.50428-23.33739 3.9151-53.81085-2.46837-11.41358-10.71003-16.98705-23.20437-15.69286-7.4908.7751-14.3431 3.79743-17.76096 5.53031-.7349.37247-1.40711.73194-2.035 1.08253.95365-11.50049 4.55834-32.99207 18.04062-46.58963 8.4882-8.56093 19.79358-12.78877 33.56792-12.56115 27.14014.4446 44.544 14.37266 54.366 25.97898 8.46338 10.00173 13.04655 20.07619 14.8758 25.50954-13.75483-1.39825-23.10977 1.31725-27.85257 8.09681-10.31686 14.7475 5.64442 43.3722 13.31555 57.1288 1.40652 2.52157 2.6209 4.70023 3.00283 5.62608 2.49792 6.05414 5.73191 10.09574 8.09326 13.04654.72366.90399 1.42603 1.78077 1.9599 2.5464-4.16576 1.20137-11.64888 3.97599-10.9672 17.8467-.54984 6.96048-4.46137 39.54638-6.44789 51.05928-2.62267 15.20983-8.21978 20.87553-23.95758 24.24965zm68.10428-77.93693c-4.25977 1.97765-11.38875 3.46103-18.16122 3.7791-7.48016.3506-11.28765-.83776-12.18335-1.56851-.42095-8.6437 2.79708-9.54708 6.20194-10.5031.53506-.15076 1.0571-.29679 1.56083-.47297.31335.25481.65626.50786 1.03169.75558 6.01215 3.9683 16.73577 4.39634 31.87407 1.27172.05557-.01182.11114-.02246.16613-.0337-2.0415 1.90907-5.53563 4.47143-10.49009 6.77188z"/></svg>