<svg xmlns="http://www.w3.org/2000/svg" width="256" height="256" preserveAspectRatio="xMidYMid"><rect width="24.38095" height="12.19048" x="182.85714" y="48.7619" fill="#56B3B4" rx="5"/><rect width="73.14286" height="12.19048" y="243.80952" fill="#EA5E5E" rx="5"/><rect width="48.7619" height="12.19048" x="146.28571" y="146.28571" fill="#BF85BF" rx="5"/><rect width="60.95238" height="12.19048" x="73.14286" y="146.28571" fill="#EA5E5E" rx="5"/><rect width="60.95238" height="12.19048" y="146.28571" fill="#56B3B4" rx="5"/><rect width="73.14286" height="12.19048" y="195.04762" fill="#BF85BF" rx="5"/><rect width="73.14286" height="12.19048" y="97.52381" fill="#BF85BF" rx="5"/><rect width="134.09524" height="12.19048" x="60.95238" y="24.38095" fill="#F7BA3E" rx="5"/><rect width="48.7619" height="12.19048" y="24.38095" fill="#EA5E5E" rx="5"/><rect width="24.38095" height="12.19048" x="48.7619" y="219.42857" fill="#F7BA3E" rx="5"/><rect width="24.38095" height="12.19048" x="48.7619" y="73.14286" fill="#56B3B4" rx="5"/><rect width="36.57143" height="12.19048" y="219.42857" fill="#56B3B4" rx="5"/><rect width="36.57143" height="12.19048" y="73.14286" fill="#F7BA3E" rx="5"/><rect width="24.38095" height="12.19048" x="158.47619" y="219.42857" fill="#D0D4D8" opacity=".5" rx="5"/><rect width="60.95238" height="12.19048" x="85.33333" y="219.42857" fill="#D0D4D8" opacity=".5" rx="5"/><rect width="60.95238" height="12.19048" x="195.04762" y="219.42857" fill="#D0D4D8" opacity=".5" rx="5"/><rect width="109.71429" height="12.19048" x="97.52381" y="121.90476" fill="#56B3B4" rx="5"/><rect width="48.7619" height="12.19048" x="36.57143" y="121.90476" fill="#F7BA3E" rx="5"/><rect width="24.38095" height="12.19048" y="121.90476" fill="#EA5E5E" rx="5"/><rect width="60.95238" height="12.19048" x="109.71429" y="48.7619" fill="#BF85BF" rx="5"/><rect width="97.52381" height="12.19048" y="48.7619" fill="#56B3B4" rx="5"/><rect width="121.90476" height="12.19048" x="36.57143" y="170.66667" fill="#F7BA3E" rx="5"/><rect width="24.38095" height="12.19048" y="170.66667" fill="#BF85BF" rx="5"/><rect width="73.14286" height="12.19048" x="146.28571" y="73.14286" fill="#EA5E5E" rx="5"/><rect width="73.14286" height="12.19048" x="146.28571" y="97.52381" fill="#F7BA3E" rx="5"/><rect width="158.47619" height="12.19048" fill="#56B3B4" rx="5"/><rect width="85.33333" height="12.19048" x="170.66667" fill="#D0D4D8" opacity=".5" rx="5"/><rect width="36.57143" height="12.19048" x="170.66667" y="170.66667" fill="#D0D4D8" opacity=".5" rx="5"/><rect width="36.57143" height="12.19048" x="219.42857" y="170.66667" fill="#D0D4D8" opacity=".5" rx="5"/><rect width="48.7619" height="12.19048" x="207.23809" y="146.28571" fill="#D0D4D8" opacity=".5" rx="5"/><rect width="48.7619" height="12.19048" x="207.23809" y="24.38095" fill="#D0D4D8" opacity=".5" rx="5"/><rect width="36.57143" height="12.19048" x="219.42857" y="121.90476" fill="#D0D4D8" opacity=".5" rx="5"/><rect width="36.57143" height="12.19048" x="219.42857" y="48.7619" fill="#D0D4D8" opacity=".5" rx="5"/><rect width="24.38095" height="12.19048" x="231.61905" y="73.14286" fill="#D0D4D8" opacity=".5" rx="5"/><rect width="24.38095" height="12.19048" x="231.61905" y="97.52381" fill="#D0D4D8" opacity=".5" rx="5"/><rect width="121.90476" height="12.19048" x="134.09524" y="195.04762" fill="#D0D4D8" opacity=".5" rx="5"/><rect width="36.57143" height="12.19048" x="85.33333" y="195.04762" fill="#D0D4D8" opacity=".5" rx="5"/><rect width="73.14286" height="12.19048" x="182.85714" y="243.80952" fill="#D0D4D8" opacity=".5" rx="5"/><rect width="85.33333" height="12.19048" x="85.33333" y="243.80952" fill="#D0D4D8" opacity=".5" rx="5"/><rect width="48.7619" height="12.19048" x="85.33333" y="73.14286" fill="#D0D4D8" opacity=".5" rx="5"/><rect width="48.7619" height="12.19048" x="85.33333" y="97.52381" fill="#D0D4D8" opacity=".5" rx="5"/></svg>