<svg xmlns="http://www.w3.org/2000/svg" width="256" height="256" preserveAspectRatio="xMidYMid"><path fill="#007ACC" d="M0 128v128h256V0H0z"/><path fill="#FFF" d="M56.61115 128.84912l-.08127 10.48381H89.8505v94.67937h23.56826v-94.67937H146.7394V129.0523c0-5.6889-.1219-10.44318-.28444-10.56508-.1219-.16254-20.39873-.24381-44.98286-.20318l-44.73905.1219-.1219 10.44318zM206.56663 118.10833c6.50159 1.6254 11.45905 4.51048 16.01016 9.22413 2.35683 2.51937 5.85143 7.11111 6.13587 8.20826.08127.32508-11.0527 7.8019-17.7981 11.9873-.2438.16254-1.21904-.89397-2.31618-2.51937-3.29143-4.79492-6.7454-6.8673-12.02794-7.23301-7.76127-.52826-12.75936 3.53523-12.71873 10.32127 0 1.9911.28445 3.16952 1.09714 4.79492 1.70667 3.53524 4.8762 5.64825 14.83175 9.95555 18.32635 7.88318 26.16889 13.08445 31.04508 20.48 5.44508 8.2489 6.66413 21.4146 2.96635 31.20762-4.0635 10.64635-14.14095 17.87937-28.32254 20.27683-4.38857.77206-14.79111.65016-19.50476-.20318-10.28064-1.82857-20.03302-6.90793-26.04699-13.57206-2.35682-2.60064-6.94857-9.38667-6.66412-9.87429.1219-.16254 1.1784-.8127 2.35682-1.50349 1.13778-.65016 5.44508-3.12889 9.50857-5.48571l7.35492-4.26667 1.54413 2.27556c2.15365 3.29143 6.8673 7.8019 9.71175 9.3054 8.16762 4.3073 19.38285 3.69777 24.9092-1.25969 2.35683-2.15365 3.33207-4.38857 3.33207-7.68 0-2.96635-.36572-4.26667-1.90984-6.50159-1.99112-2.84444-6.0546-5.2419-17.59493-10.24-13.20634-5.68889-18.89523-9.22412-24.0965-14.83174-3.00699-3.2508-5.85143-8.45207-7.02984-12.8-.97524-3.61651-1.21905-12.6781-.44699-16.33524 2.72254-12.75937 12.35302-21.65841 26.25016-24.29968 4.51048-.85334 14.99429-.52826 19.4235.56889z"/></svg>